<?xml version="1.0" standalone="no"?>
<!DOCTYPE svg PUBLIC "-//W3C//DTD SVG 1.1//EN" "http://www.w3.org/Graphics/SVG/1.1/DTD/svg11.dtd" >
<svg xmlns="http://www.w3.org/2000/svg">
<metadata>
This is a custom SVG font generated by IcoMoon.
<iconset grid="48"></iconset>
</metadata>
<defs>
<font id="fleur" horiz-adv-x="1536" >
<font-face units-per-em="1536" ascent="1504" descent="-32" />
<missing-glyph horiz-adv-x="1536" />
<glyph unicode="&#x35;" d="M 192.00,511.999c0.00-300.48, 243.519-543.999, 543.999-543.999l 32.001,0.00 c 300.513,0.00, 543.999,243.519, 543.999,543.999c0.00,67.521-9.60,132.159-32.001,192.00
	c-185.952,0.00-349.761-93.12-447.999-235.20l0.00,243.201 c 182.721,37.119, 320.001,198.399, 320.001,392.001L 1152.00,1440.64 C 1152.00,1475.521, 1123.20,1504.00, 1088.001,1504.00c-17.952,0.00-34.239-7.359-45.759-19.20L 920.64,1364.479
	L 800.001,1484.80c-25.599,25.599-66.879,25.599-92.16,0.00l-122.559-122.241L 461.76,1484.80C 450.24,1496.641, 433.92,1504.00, 416.001,1504.00c-35.199,0.00-63.999-28.479-63.999-63.36L 351.999,1104.001 
	c0.00-193.599, 137.28-354.879, 320.001-392.001l0.00-243.201 C 573.759,610.879, 409.92,703.999, 224.001,703.999C 201.60,644.161, 192.00,579.52, 192.00,511.999z" data-tags="flower, nature, green" />
<glyph unicode="&#x23;" d="M0.00,96.001c0.00-70.719, 57.279-128.001, 128.001-128.001l 1280.001,0.00 c 70.719,0.00, 128.001,57.279, 128.001,128.001L 1536.00,1375.999 c0.00,70.719-57.279,128.001-128.001,128.001L 128.001,1504.00 
	C 57.279,1504.00,0.00,1446.721,0.00,1375.999L0.00,96.001 z M 800.001,160.00L 800.001,672.001 l-128.001,0.00 l0.00,192.00 l 128.001,0.00 C 800.001,1193.92, 814.047,1216.00, 1215.999,1216.00l0.00-192.00 c-211.839,0.00-192.00-11.841-192.00-159.999l 192.00,0.00 l0.00-192.00 l-192.00,0.00 l0.00-512.001 L 800.001,160.00 z" data-tags="facebook, social" />
<glyph unicode="&#x21;" d="M 1280.013,1504.00L 256.029,1504.00 C 115.218,1504.00,0.00,1388.785,0.00,1247.965l0.00-1023.933 C0.00,83.125, 115.218-32.00, 256.029-32.00l 1023.984,0.00 
	C 1420.827-32.00, 1536.00,83.125, 1536.00,224.035L 1536.00,1247.965 C 1536.00,1388.785, 1420.827,1504.00, 1280.013,1504.00z M 1257.078,991.249
	c 0.492-11.013, 0.735-22.092, 0.735-33.222c0.00-339.321-253.824-730.602-717.987-730.602c-142.506,0.00-275.151,42.522-386.829,115.377
	c 19.74-2.382, 39.828-3.591, 60.195-3.591c 118.233,0.00, 227.037,41.055, 313.401,109.923c-110.424,2.07-203.616,76.314-235.731,178.323
	c 15.411-3.00, 31.218-4.611, 47.478-4.611c 23.016,0.00, 45.309,3.144, 66.48,9.012c-115.44,23.598-202.425,127.374-202.425,251.784
	c0.00,1.083,0.00,2.157, 0.024,3.228c 34.02-19.23, 72.936-30.78, 114.30-32.115c-67.713,46.047-112.263,124.638-112.263,213.732
	c0.00,47.055, 12.441,91.167, 34.167,129.087c 124.461-155.355, 310.404-257.58, 520.131-268.293c-4.305,18.798-6.537,38.394-6.537,58.521
	c0.00,141.807, 112.989,256.77, 252.345,256.77c 72.585,0.00, 138.177-31.179, 184.203-81.087c 57.48,11.514, 111.486,32.88, 160.248,62.313
	c-18.843-59.964-58.851-110.283-110.949-142.065c 51.039,6.207, 99.678,20.01, 144.93,40.431C 1349.175,1072.678, 1306.389,1027.45, 1257.078,991.249
	z" data-tags="twitter, tweet, social" />
<glyph unicode="&#x22;" d="M 857.952,968.959l-97.632-96.96L 369.279,1263.04c-11.52,11.52-27.201,18.561-44.799,18.561
	c-28.479,0.00-52.80-18.879-60.801-44.481L 260.16,1225.60C 236.799,1152.001, 224.001,1073.599, 224.001,991.999c0.00-190.401, 69.12-364.512, 183.681-498.561l-12.159-15.999c-56.319-56.001-88.641-127.041-96.639-200.319
	c-107.841-28.191-193.599-108.192-227.52-211.20c0.00,0.00-7.359-19.521-7.359-33.951c0.00-35.199, 29.439-63.999, 65.601-63.999l 508.80,0.00 c 36.159,0.00, 65.601,28.80, 65.601,63.999
	c0.00,20.16-8.961,38.40-8.961,38.40c-35.841,103.329-123.84,182.721-233.601,208.641c 7.041,31.359, 22.719,61.119, 47.04,85.473l 14.721,19.20C 652.80,283.489, 815.361,223.999, 992.001,223.999
	c 80.319,0.00, 157.761,12.159, 230.40,35.199c 3.519,0.96, 16.32,6.399, 16.32,6.399c 24.351,8.961, 41.919,32.352, 41.919,59.841c0.00,17.952-7.329,34.239-19.488,45.759L 1251.201,380.80
	L 871.68,760.639l 97.248,97.281c 30.753,30.72, 30.753,80.319,0.00,111.039C 938.241,999.679, 888.639,999.679, 857.952,968.959z M 1088.001,912.001c0.00-44.16, 35.841-80.001, 80.001-80.001
	s 80.001,35.841, 80.001,80.001L 1247.679,928.00c-3.84,80.64-36.513,159.999-98.241,221.439C 1088.001,1211.20, 1008.639,1243.84, 927.999,1247.68L 912.00,1248.001C 867.84,1248.001, 831.999,1212.16, 831.999,1168.00
	s 35.841-80.001, 80.001-80.001c 5.439,0.00, 15.999-0.639, 15.999-0.639c 39.681-3.84, 78.048-20.481, 108.513-50.88c 30.369-30.399, 47.007-68.799, 50.559-108.48
	C 1087.071,928.00, 1088.001,917.44, 1088.001,912.001z M 1344.00,912.001c0.00-44.16, 35.841-80.001, 80.001-80.001s 80.001,35.841, 80.001,80.001L 1503.681,928.00c-3.84,146.241-61.44,291.201-173.121,402.561
	C 1219.20,1442.239, 1074.24,1499.839, 927.999,1503.679L 912.00,1504.00C 867.84,1504.00, 831.999,1468.159, 831.999,1423.999S 867.84,1344.001, 912.00,1344.001L 927.999,1343.68c 105.279-3.84, 209.28-46.08, 289.599-126.081
	c 80.001-80.319, 122.241-184.32, 126.081-289.599L 1344.00,912.001z" data-tags="broadcast" />
<glyph unicode="&#x24;" d="M 639.999,1167.103c-91.839,89.919-305.919,126.081-426.561-3.201C 95.361,1037.824,0.00,733.855,0.00,447.103
	c0.00-345.951, 289.92-393.951, 447.999-224.001c 91.521,98.559, 100.161,113.952, 159.999,192.00l 320.001,0.00 c 60.159-78.048, 68.481-93.441, 159.999-192.00c 158.049-169.953, 447.999-121.953, 447.999,224.001
	c0.00,286.752-95.361,590.721-213.441,716.799c-120.639,129.279-334.401,93.12-426.561,3.201c-35.52-34.56-128.001-48.00-128.001-48.00S 675.519,1132.543, 639.999,1167.103z M 512.001,955.903l0.00-92.769 
	l 92.799,0.00 c 37.119,0.00, 67.20-28.80, 67.20-64.032c0.00-35.199-30.081-63.999-67.20-63.999L 512.001,735.103 l0.00-92.769 c0.00-37.152-28.80-67.233-63.999-67.233s-63.999,30.048-63.999,67.233l0.00,92.769 L 291.201,735.103 
	c-37.119,0.00-67.20,28.80-67.20,63.999c0.00,35.232, 30.081,64.032, 67.20,64.032L 384.00,863.137 l0.00,92.769 c0.00,37.119, 28.80,67.20, 63.999,67.20S 512.001,993.025, 512.001,955.903z M 1088.001,911.104
	c0.00,44.16, 35.841,80.001, 80.001,80.001s 80.001-35.841, 80.001-80.001s-35.841-80.001-80.001-80.001S 1088.001,866.944, 1088.001,911.104z M 927.999,719.104c0.00,44.193, 35.841,80.001, 80.001,80.001
	s 80.001-35.808, 80.001-80.001c0.00-44.127-35.841-80.001-80.001-80.001S 927.999,674.977, 927.999,719.104z" data-tags="gamepad, joystick" />
<glyph unicode="&#x25;" d="M 745.953,1194.208c-94.719-94.719-72.672-217.92-104.352-337.92L 110.40,1392.64
	C 98.88,1404.799, 82.239,1412.479, 63.999,1412.479c-35.199,0.00-63.999-28.479-63.999-63.999l0.00-21.759 c0.00-192.96, 83.232-550.08, 343.071-836.16L 37.119,184.927c-49.599-49.569-49.599-130.209,0.00-179.808
	c 49.599-49.632, 130.239-49.632, 179.52,0.00L 521.601,310.399L 704.001,127.999l 157.44,143.04l 265.953-265.92c 49.248-49.632, 129.921-49.632, 179.487,0.00c 49.632,49.599, 49.632,130.239,0.00,179.808
	L 886.047,609.28c 121.311,33.279, 245.439,9.921, 340.191,104.673l 286.047,286.047c 31.68,31.359, 31.68,82.56,0.00,114.207c-31.68,31.713-82.881,31.713-114.24,0.00
	L 1146.24,862.72c-18.879-18.879-49.632-18.879-68.511,0.00c-19.20,18.879-19.20,49.599,0.00,68.481l 251.52,251.841c 31.647,31.359, 31.647,82.56,0.00,114.24
	c-31.68,31.647-82.881,31.647-114.207,0.00L 963.201,1045.759c-18.879-19.20-49.599-19.20-68.481,0.00c-18.879,18.879-18.879,49.632,0.00,68.481l 251.52,251.841
	c 31.68,31.359, 31.68,82.56,0.00,114.24s-82.881,31.68-114.24,0.00L 745.953,1194.208z" data-tags="food" />
<glyph unicode="&#x26;" d="M 543.999,884.161L 24.96,172.159C 9.279,150.721,0.00,124.48,0.00,96.001c0.00-70.719, 57.279-128.001, 128.001-128.001l 1280.001,0.00 
	c 70.719,0.00, 128.001,57.279, 128.001,128.001c0.00,28.479-9.279,54.72-24.927,76.161L 992.001,884.161L 992.001,1344.001 l 15.999,0.00 C 1052.16,1344.001, 1088.001,1379.839, 1088.001,1423.999S 1052.16,1504.00, 1008.00,1504.00l-480.00,0.00 C 483.84,1504.00, 447.999,1468.159, 447.999,1423.999
	S 483.84,1344.001, 528.00,1344.001L 543.999,1344.001 L 543.999,884.161 z M 704.001,1344.001l 128.001,0.00 l0.00-480.00 l 224.001-320.001L 480.00,544.00 l 224.001,320.001L 704.001,1344.001 z" data-tags="lab, beta, test, chemistry" />
<glyph unicode="&#x27;" d="M 735.999,192.001l0.00,128.001 l 384.639,0.00 c 34.881,0.00, 63.36,28.80, 63.36,63.999c0.00,17.601-7.071,33.60-18.561,45.12
	L 925.119,672.001l 99.489,0.00 c 34.881,0.00, 63.36,28.80, 63.36,63.999c0.00,17.601-7.071,33.60-18.561,45.12L 829.119,1024.00l 99.489,0.00 c 34.881,0.00, 63.36,29.439, 63.36,65.601
	c0.00,17.952-7.071,34.239-18.561,46.08L 637.119,1484.80c-24.96,25.599-65.28,25.599-90.207,0.00L 211.20,1136.32C 199.359,1124.479, 192.00,1107.841, 192.00,1089.601C 192.00,1053.439, 220.479,1024.00, 255.36,1024.00
	l 99.201,0.00 L 115.20,781.792C 103.359,770.209, 96.00,753.952, 96.00,736.00c0.00-35.199, 28.479-63.999, 63.36-63.999l 99.201,0.00 L 19.20,429.793C 7.359,418.207,0.00,401.953,0.00,384.001c0.00-35.199, 28.479-63.999, 63.36-63.999L 480.00,319.999 l0.00-128.001 
	c0.00-35.199-28.80-63.999-63.999-63.999L 80.001,127.999 C 35.841,127.999,0.00,92.161,0.00,48.001S 35.841-32.00, 80.001-32.00l 1376.001,0.00 c 44.16,0.00, 80.001,35.841, 80.001,80.001S 1500.159,127.999, 1455.999,127.999L 800.001,127.999 C 764.799,127.999, 735.999,156.799, 735.999,192.001
	z" data-tags="tree, nature, green" />
<glyph unicode="&#x28;" d="M 768.00,1209.505c-32.001,124.479-194.559,198.399-320.001,198.399c-247.359,0.00-447.999-192.00-447.999-447.999c0.00-480.00, 456.321-608.001, 704.001-896.001
	c 2.208-3.201, 4.80-5.793, 7.68-8.64c 31.329-31.071, 81.921-31.071, 113.247,0.00c 2.913,2.847, 4.80,5.439, 7.071,8.64c 248.001,288.639, 704.001,414.048, 704.001,896.001
	c0.00,255.999-200.64,447.999-447.999,447.999C 962.559,1407.904, 800.001,1333.984, 768.00,1209.505z M 1108.80,1119.904c-30.081,5.439-52.80,31.68-52.80,63.039c0.00,35.199, 28.80,64.959, 63.999,64.959
	c 50.88,0.00, 112.641-36.159, 164.481-87.36c 52.80-52.479, 91.521-122.559, 91.521-168.639c0.00-35.199-28.80-63.999-63.999-63.999c-31.359,0.00-57.60,22.719-63.072,52.80
	C 1232.928,1045.024, 1177.953,1103.905, 1108.80,1119.904z" data-tags="heart, love, favorite, like" />
<glyph unicode="&#x29;" d="M 351.999,1471.999c-25.92,15.999-62.079,32.001-96.00,32.001C 114.561,1504.00,0.00,1388.479,0.00,1245.76C0.00,1039.36, 219.84,965.761, 351.999,864.001
	l0.00-48.00 c0.00-193.599, 137.28-354.879, 320.001-392.001L 672.00,192.001 c0.00-35.199-28.80-63.999-63.999-63.999l-176.001,0.00 c-44.16,0.00-80.001-35.841-80.001-80.001s 35.841-80.001, 80.001-80.001l 639.999,0.00 c 44.16,0.00, 80.001,35.841, 80.001,80.001
	S 1116.159,127.999, 1071.999,127.999L 896.001,127.999 c-35.199,0.00-63.999,28.80-63.999,63.999l0.00,231.999 c 182.721,37.119, 320.001,198.399, 320.001,392.001L 1152.00,864.001 c 132.159,101.76, 351.999,175.359, 351.999,381.759C 1503.999,1388.479, 1389.441,1504.00, 1248.00,1504.00
	c-33.951,0.00-70.047-15.999-96.00-32.001L 351.999,1471.999 z M 639.999,1248.001l0.00-384.00 c0.00-35.199-28.80-63.999-63.999-63.999s-63.999,28.80-63.999,63.999L 512.001,1248.001 c0.00,35.199, 28.80,63.999, 63.999,63.999S 639.999,1283.20, 639.999,1248.001z M 159.999,1245.76C 159.999,1299.199, 202.881,1342.72, 255.999,1342.72
	c 53.121,0.00, 96.00-43.521, 96.00-96.96l0.00-196.80 C 259.839,1107.199, 159.999,1145.953, 159.999,1245.76z M 1344.00,1245.76c0.00-99.807-99.84-138.561-192.00-196.80L 1152.00,1245.76 c0.00,53.439, 42.879,96.96, 96.00,96.96
	S 1344.00,1299.199, 1344.00,1245.76z" data-tags="cup, trophy, win, tournament" />
<glyph unicode="&#x2b;" d="M 1392.00-32.00l-48.00,0.00 L 1344.00,448.00 l 192.00,0.00 l0.00-336.00 C 1536.00,32.512, 1471.536-32.00, 1392.00-32.00z M 1344.00,1024.00l 48.00,0.00 c 79.536,0.00, 144.00-64.512, 144.00-144.00l0.00-384.00 l-192.00,0.00 
	L 1344.00,1024.00 z M 288.00,448.00l 97.296,0.00 L 528.00,448.00 l 48.00,0.00 l 96.00,0.00 l0.00-48.00 l0.00-48.00 c0.00-26.544, 21.504-48.00, 48.00-48.00l 48.00,0.00 l0.00,0.00l 48.00,0.00 c 26.544,0.00, 48.00,21.456, 48.00,48.00l0.00,48.00 l0.00,48.00 l 288.00,0.00 l 96.00,0.00 l0.00-480.00 L 288.00-32.00 L 288.00,448.00 z M 864.00,496.00l0.00,96.00 l0.00,48.00 c0.00,26.544-21.456,48.00-48.00,48.00
	l-48.00,0.00 l0.00,0.00l-48.00,0.00 c-26.496,0.00-48.00-21.456-48.00-48.00l0.00-48.00 l0.00-96.00 l-96.00,0.00 l-48.00,0.00 L 384.00,496.00 L 288.00,496.00 L 288.00,1024.00 l 96.00,0.00 L 384.00,1144.00 C 384.00,1342.816, 555.936,1504.00, 768.00,1504.00s 384.00-161.184, 384.00-360.00L 1152.00,1024.00 l 96.00,0.00 l0.00-528.00 l-96.00,0.00 L 864.00,496.00 z M 960.00,1120.00
	c0.00,106.032-85.968,192.00-192.00,192.00s-192.00-85.968-192.00-192.00l0.00-96.00 l 384.00,0.00 L 960.00,1120.00 z M0.00,112.00l0.00,336.00 l 192.00,0.00 l0.00-480.00 L 144.00-32.00 C 64.464-32.00,0.00,32.512,0.00,112.00z M0.00,880.00c0.00,79.488, 64.464,144.00, 144.00,144.00l 48.00,0.00 l0.00-528.00 L0.00,496.00 L0.00,880.00 z" data-tags="briefcase, suitcase, travel, work" />
<glyph unicode="&#x2a;" d="M 0.00,669.385 C 0.00,599.788 6.51,536.815 19.533,480.484 C 32.55,424.153 50.577,375.208 73.611,333.646 C 96.645,292.084 125.937,255.529 161.49,223.984 C 197.04,192.436 235.599,166.648 277.158,146.62 C 318.717,126.595 366.162,110.323 419.49,97.801 C 472.818,85.282 527.274,76.519 582.855,71.509 C 638.436,66.502 699.525,64.00 766.122,64.00 C 833.22,64.00 894.564,66.502 950.142,71.509 C 1005.723,76.519 1060.305,85.285 1113.882,97.801 C 1167.459,110.317 1215.15,126.589 1256.964,146.62 C 1298.778,166.651 1337.583,192.436 1373.388,223.984 C 1409.193,255.529 1438.737,292.09 1462.017,333.646 C 1485.297,375.202 1503.45,424.15 1516.47,480.484 C 1529.49,536.818 1536.00,599.788 1536.00,669.385 C 1536.00,793.567 1494.438,900.976 1411.323,991.609 C 1415.829,1003.627 1419.96,1017.271 1423.716,1032.544 C 1427.472,1047.817 1430.976,1069.597 1434.231,1097.89 C 1437.486,1126.183 1436.235,1158.853 1430.475,1195.909 C 1424.718,1232.965 1414.077,1270.768 1398.549,1309.327 L 1387.284,1311.58 C 1379.271,1313.08 1366.125,1312.705 1347.849,1310.452 C 1329.573,1308.199 1308.291,1303.693 1284.006,1296.931 C 1259.721,1290.172 1228.425,1277.152 1190.118,1257.874 C 1151.811,1238.596 1111.377,1214.437 1068.813,1185.394 C 995.709,1205.422 895.311,1215.439 767.625,1215.439 C 640.437,1215.439 540.291,1205.422 467.184,1185.394 C 424.62,1214.437 383.934,1238.596 345.129,1257.874 C 306.324,1277.152 275.403,1290.172 252.369,1296.931 C 229.338,1303.693 207.804,1308.073 187.776,1310.077 C 167.745,1312.081 155.10,1312.705 149.844,1311.955 C 144.588,1311.205 140.454,1310.326 137.451,1309.327 C 121.929,1270.768 111.288,1232.968 105.531,1195.909 C 99.774,1158.853 98.52,1126.18 101.775,1097.89 C 105.03,1069.60 108.537,1047.817 112.29,1032.544 C 116.046,1017.271 120.177,1003.627 124.683,991.609 C 41.562,900.976 0.00,793.57 0.00,669.385 Z M 188.526,480.859 C 188.526,552.964 221.325,619.063 286.92,679.15 C 306.447,697.18 329.232,710.821 355.269,720.088 C 381.306,729.352 410.724,734.608 443.523,735.862 C 476.322,737.113 507.741,736.864 537.786,735.109 C 567.828,733.357 604.884,730.978 648.948,727.975 C 693.012,724.969 731.07,723.469 763.116,723.469 C 795.165,723.469 833.22,724.969 877.284,727.975 C 921.351,730.978 958.401,733.357 988.449,735.109 C 1018.494,736.864 1049.91,737.113 1082.712,735.862 C 1115.511,734.608 1144.926,729.352 1170.969,720.088 C 1197.003,710.824 1219.785,697.183 1239.315,679.15 C 1304.91,620.059 1337.712,553.966 1337.712,480.859 C 1337.712,437.791 1332.327,399.616 1321.56,366.313 C 1310.793,333.013 1297.023,305.098 1280.247,282.568 C 1263.471,260.038 1240.191,240.883 1210.395,225.109 C 1180.602,209.335 1151.562,197.194 1123.269,188.677 C 1094.976,180.166 1058.67,173.53 1014.357,168.772 C 970.038,164.014 930.483,161.134 895.68,160.135 C 860.88,159.133 816.69,158.632 763.113,158.632 C 709.536,158.632 665.346,159.133 630.546,160.135 C 595.746,161.134 556.185,164.014 511.872,168.772 C 467.559,173.53 431.256,180.166 402.963,188.677 C 374.673,197.194 345.63,209.338 315.837,225.109 C 286.044,240.88 262.758,260.032 245.985,282.568 C 229.212,305.101 215.439,333.013 204.675,366.313 C 193.908,399.616 188.526,437.797 188.526,480.859 ZM 960.00,496.00A96.00,144.00 2700.00 1 1 1152.00,496A96.00,144.00 2700.00 1 1 960.00,496zM 384.00,496.00A96.00,144.00 2700.00 1 1 576.00,496A96.00,144.00 2700.00 1 1 384.00,496z" data-tags="github, octacat, social" />
<glyph unicode="&#x2c;" d="M 543.999,1408.513c-125.121,125.121-325.44,127.359-450.24,2.208
	c-125.121-124.767-125.121-327.648,0.00-452.481c 62.40-62.367, 143.361-93.759, 224.961-93.759L 70.401,864.481 c-39.039,0.00-70.401-31.359-70.401-70.401l0.00-147.168 c0.00-39.072, 31.359-70.431, 70.401-70.431
	L 128.001,576.481 l0.00-480.00 c0.00-70.689, 57.279-128.001, 128.001-128.001l 1023.999,0.00 c 70.719,0.00, 128.001,57.312, 128.001,128.001l0.00,480.00 l 57.60,0.00 c 39.039,0.00, 70.401,31.359, 70.401,70.431l0.00,147.168 c0.00,39.039-31.359,70.401-70.401,70.401l-248.673,0.00 
	c 81.951,0.00, 162.912,31.359, 225.279,93.759c 125.151,124.80, 125.151,327.681,0.00,452.481C 1317.441,1535.905, 1117.119,1533.631, 992.001,1408.513l-224.001-224.001L 543.999,1408.513z M 933.759,1128.832
	l 168.96,168.96c 62.721,62.40, 163.839,62.40, 226.56,0.00c 62.40-62.721, 62.40-163.839,0.00-226.56c-31.329-31.041-72.351-46.719-113.28-46.719l-232.641,0.00 c-35.232,0.00-63.999,28.80-63.999,63.999
	C 919.359,1103.905, 924.801,1117.633, 933.759,1128.832z M 433.281,1297.792l 163.839-163.839l 0.321-0.321c 11.487-11.841, 18.561-27.519, 18.561-45.12c0.00-35.199-28.80-63.999-63.999-63.999L 320.001,1024.513 
	c-40.959,0.00-81.951,15.681-113.28,46.719c-62.40,62.721-62.40,163.839,0.00,226.56C 269.439,1360.192, 370.56,1360.192, 433.281,1297.792z M 608.001,864.511l 320.001,0.00 l0.00-665.568 
	c0.00-39.072-31.359-70.431-70.401-70.431l-179.199,0.00 c-39.039,0.00-70.401,31.359-70.401,70.431L 608.001,864.511 z" data-tags="gift, present, prize" />
<glyph unicode="&#x2e;" d="M 1479.648,1447.744c-74.976,74.976-196.512,74.976-271.488,0.00L 660.96,900.64c 126.768-45.168, 226.512-144.96, 271.488-271.68
				l 547.20,547.296C 1554.672,1251.232, 1554.672,1372.768, 1479.648,1447.744zM 767.808,480.064c0.00,141.36-114.768,255.936-256.128,255.936s-255.936-114.576-255.936-255.936l 0.192-0.192
			C 255.744,290.512, 152.832,125.296,0.00,36.832l 0.768-0.96C 75.936-7.232, 162.96-32.00, 255.936-32.00C 538.704-32.00, 768.00,197.296, 768.00,480.064L 767.808,480.064 z" horiz-adv-x="1533" data-tags="brush, paint" />
<glyph unicode="&#x2f;" d="M 1248.00-32.00L 288.00-32.00 c-159.072,0.00-288.00,129.024-288.00,288.00L0.00,832.00 c0.00,159.072, 128.928,288.00, 288.00,288.00L 288.00,1216.00 l 288.00,0.00 l0.00-96.00 l 192.00,0.00 L 768.00,1504.00 l 480.00,0.00 l0.00-384.00 
	c 159.072,0.00, 288.00-128.928, 288.00-288.00l0.00-576.00 C 1536.00,97.024, 1407.072-32.00, 1248.00-32.00z M 480.00,832.00L 192.00,832.00 l0.00-96.00 l 288.00,0.00 L 480.00,832.00 z M 1152.00,1408.00L 864.00,1408.00 l0.00-288.00 l 288.00,0.00 L 1152.00,1408.00 z M 1056.00,832.00c-159.072,0.00-288.00-129.024-288.00-288.00s 128.928-288.00, 288.00-288.00
	s 288.00,129.024, 288.00,288.00S 1215.072,832.00, 1056.00,832.00z M 1152.00,544.00c-52.992,0.00-96.00,42.912-96.00,96.00s 43.008,96.00, 96.00,96.00c 53.088,0.00, 96.00-42.912, 96.00-96.00S 1205.088,544.00, 1152.00,544.00z" data-tags="camera, photos, images, pictures" />
<glyph unicode="&#x30;" d="M 576.00,624.001c0.00,0.00, 305.916,183.54, 478.149,111.039c 35.703,54.402, 70.872,113.004, 105.303,172.833
	C 990.963,949.153, 768.00,912.001, 768.00,912.001s 285.318,171.183, 459.999,117.60c 35.025,63.162, 69.081,125.463, 101.934,183.456
	C 1190.769,1222.459, 1056.00,1200.001, 1056.00,1200.001s 178.722,107.232, 339.867,125.397C 1446.564,1407.688, 1493.622,1472.218, 1536.00,1504.00C 694.50,1504.00, 192.00,544.00,0.00-32.00
	l 96.00,0.00 l 288.00,480.00c0.00,0.00, 96.00-96.00, 384.00,0.00c 68.211,22.737, 136.422,85.878, 203.358,170.901C 802.434,661.732, 576.00,624.001, 576.00,624.001z" data-tags="quill, feather, write, blog, edit" />
<glyph unicode="&#x31;" d="M 768.00-32.00c 424.155,0.00, 768.00,343.845, 768.00,768.00S 1192.155,1504.00, 768.00,1504.00S0.00,1160.155,0.00,736.00S 343.845-32.00, 768.00-32.00z M 768.00,1360.00
		c 344.625,0.00, 624.00-279.375, 624.00-624.00s-279.375-624.00-624.00-624.00S 144.00,391.375, 144.00,736.00S 423.375,1360.00, 768.00,1360.00zM 768.00,605.86 C 941.925,605.86 1107.345,652.069 1248.00,733.24 C 1226.139,465.583 1018.308,256.00 768.00,256.00 C 517.698,256.00 309.867,465.808 288.00,733.456 C 428.655,652.288 594.075,605.86 768.00,605.86 ZM 384.00,976.00A96.00,144.00 2700.00 1 1 576.00,976A96.00,144.00 2700.00 1 1 384.00,976zM 960.00,976.00A96.00,144.00 2700.00 1 1 1152.00,976A96.00,144.00 2700.00 1 1 960.00,976z" data-tags="happy, emoticon, smiley, face" />
<glyph unicode="&#x32;" d="M 768.00-32.00c 424.155,0.00, 768.00,343.845, 768.00,768.00S 1192.155,1504.00, 768.00,1504.00S0.00,1160.155,0.00,736.00S 343.845-32.00, 768.00-32.00z M 768.00,1360.00
		c 344.625,0.00, 624.00-279.375, 624.00-624.00s-279.375-624.00-624.00-624.00S 144.00,391.375, 144.00,736.00S 423.375,1360.00, 768.00,1360.00zM 384.00,1024.00 C 384.00,1077.019 426.981,1120.00 480.00,1120.00 C 533.019,1120.00 576.00,1077.019 576.00,1024.00 C 576.00,970.981 533.019,928.00 480.00,928.00 C 426.981,928.00 384.00,970.981 384.00,1024.00 Z M 960.00,1024.00 C 960.00,1077.019 1002.981,1120.00 1056.00,1120.00 C 1109.019,1120.00 1152.00,1077.019 1152.00,1024.00 C 1152.00,970.981 1109.019,928.00 1056.00,928.00 C 1002.981,928.00 960.00,970.981 960.00,1024.00 ZM 1056.147,563.11 L 1179.639,489.016 C 1095.696,349.411 942.765,256.00 768.00,256.00 C 593.235,256.00 440.304,349.411 356.361,489.016 L 479.853,563.11 C 538.614,465.388 645.666,400.00 768.00,400.00 C 890.334,400.00 997.386,465.388 1056.147,563.11 Z" data-tags="smiley, emoticon, face" />
<glyph unicode="&#x33;" d="M 768.00-32.00c 424.155,0.00, 768.00,343.845, 768.00,768.00S 1192.155,1504.00, 768.00,1504.00S0.00,1160.155,0.00,736.00S 343.845-32.00, 768.00-32.00z M 768.00,1360.00
		c 344.625,0.00, 624.00-279.375, 624.00-624.00s-279.375-624.00-624.00-624.00S 144.00,391.375, 144.00,736.00S 423.375,1360.00, 768.00,1360.00zM 384.00,1024.00 C 384.00,1077.019 426.981,1120.00 480.00,1120.00 C 533.019,1120.00 576.00,1077.019 576.00,1024.00 C 576.00,970.981 533.019,928.00 480.00,928.00 C 426.981,928.00 384.00,970.981 384.00,1024.00 Z M 960.00,1024.00 C 960.00,1077.019 1002.981,1120.00 1056.00,1120.00 C 1109.019,1120.00 1152.00,1077.019 1152.00,1024.00 C 1152.00,970.981 1109.019,928.00 1056.00,928.00 C 1002.981,928.00 960.00,970.981 960.00,1024.00 ZM 479.853,332.89 L 356.361,406.984 C 440.304,546.589 593.235,640.00 768.00,640.00 C 942.762,640.00 1095.693,546.589 1179.639,406.984 L 1056.147,332.89 C 997.386,430.612 890.334,496.00 768.00,496.00 C 645.663,496.00 538.614,430.612 479.853,332.89 Z" data-tags="sad, emoticon, smiley, face" />
<glyph unicode="&#x34;" d="M 768.00-32.00c 424.155,0.00, 768.00,343.845, 768.00,768.00S 1192.155,1504.00, 768.00,1504.00S0.00,1160.155,0.00,736.00S 343.845-32.00, 768.00-32.00z M 768.00,1360.00
		c 344.625,0.00, 624.00-279.375, 624.00-624.00s-279.375-624.00-624.00-624.00S 144.00,391.375, 144.00,736.00S 423.375,1360.00, 768.00,1360.00zM 814.11,437.458 C 1024.482,479.017 1187.775,574.771 1246.791,702.349 C 1214.31,450.415 1004.514,256.00 750.516,256.00 C 571.653,256.00 414.729,352.423 326.178,497.422 C 431.793,414.835 617.979,398.71 814.11,437.458 ZM 960.00,976.00A96.00,144.00 2700.00 1 1 1152.00,976A96.00,144.00 2700.00 1 1 960.00,976zM 528.00,946.75 C 465.306,946.75 411.999,923.266 392.226,890.50 C 386.916,899.299 384.00,938.761 384.00,948.625 C 384.00,995.224 448.47,1033.00 528.00,1033.00 C 607.53,1033.00 672.00,995.224 672.00,948.625 C 672.00,938.761 669.084,899.299 663.774,890.50 C 644.001,923.266 590.694,946.75 528.00,946.75 Z" data-tags="wink, emoticon, smiley, face" />
<glyph unicode="&#x36;" d="M 768.00-32.00c 424.155,0.00, 768.00,343.845, 768.00,768.00S 1192.155,1504.00, 768.00,1504.00S0.00,1160.155,0.00,736.00S 343.845-32.00, 768.00-32.00z M 768.00,1360.00
	c 344.625,0.00, 624.00-279.375, 624.00-624.00s-279.375-624.00-624.00-624.00S 144.00,391.375, 144.00,736.00S 423.375,1360.00, 768.00,1360.00z M 1056.147,332.89
	C 997.386,430.612, 890.331,496.00, 768.00,496.00c-122.334,0.00-229.386-65.388-288.147-163.11l-123.492,74.094C 440.301,546.589, 593.235,640.00, 768.00,640.00
	c 174.762,0.00, 327.696-93.411, 411.639-233.016L 1056.147,332.89zM 1150.563,1083.64 C 1156.989,1057.924 1141.353,1031.863 1115.64,1025.434 C 1089.201,1018.759 1057.857,1007.254 1030.236,993.409 C 1046.208,976.264 1055.997,953.281 1055.997,928.00 C 1055.997,874.981 1013.016,832.00 959.997,832.00 C 906.978,832.00 863.997,874.981 863.997,928.00 C 863.997,929.755 864.051,931.495 864.144,933.226 C 867.192,1004.407 931.962,1051.645 986.532,1078.933 C 1038.645,1104.988 1090.185,1118.023 1092.354,1118.566 C 1118.073,1124.998 1144.131,1109.359 1150.563,1083.64 ZM 385.437,1083.64c 6.432,25.719, 32.49,41.358, 58.209,34.926c 2.169-0.543, 53.709-13.578, 105.822-39.633
	c 54.57-27.288, 119.34-74.526, 122.388-145.707c 0.093-1.731, 0.147-3.471, 0.147-5.226c0.00-53.019-42.981-96.00-96.00-96.00s-96.00,42.981-96.00,96.00
	c0.00,25.281, 9.789,48.264, 25.761,65.409c-27.621,13.845-58.965,25.35-85.404,32.025C 394.647,1031.863, 379.011,1057.924, 385.437,1083.64z" data-tags="angry, emoticon, smiley, face, rage" />
<glyph unicode="&#x37;" d="M 768.00-32.00c 424.155,0.00, 768.00,343.845, 768.00,768.00S 1192.155,1504.00, 768.00,1504.00S0.00,1160.155,0.00,736.00S 343.845-32.00, 768.00-32.00z M 768.00,1360.00
		c 344.625,0.00, 624.00-279.375, 624.00-624.00s-279.375-624.00-624.00-624.00S 144.00,391.375, 144.00,736.00S 423.375,1360.00, 768.00,1360.00zM 576.00,448.00 C 576.00,554.038 661.962,640.00 768.00,640.00 C 874.038,640.00 960.00,554.038 960.00,448.00 C 960.00,341.962 874.038,256.00 768.00,256.00 C 661.962,256.00 576.00,341.962 576.00,448.00 ZM 960.00,976.00A96.00,144.00 2700.00 1 1 1152.00,976A96.00,144.00 2700.00 1 1 960.00,976zM 384.00,976.00A96.00,144.00 2700.00 1 1 576.00,976A96.00,144.00 2700.00 1 1 384.00,976z" data-tags="shocked, emoticon, smiley, face" />
<glyph unicode="&#x38;" d="M 768.00-32.00c 424.155,0.00, 768.00,343.845, 768.00,768.00S 1192.155,1504.00, 768.00,1504.00S0.00,1160.155,0.00,736.00S 343.845-32.00, 768.00-32.00z M 768.00,1360.00
		c 344.625,0.00, 624.00-279.375, 624.00-624.00s-279.375-624.00-624.00-624.00S 144.00,391.375, 144.00,736.00S 423.375,1360.00, 768.00,1360.00zM 1118.61,601.57L 1152.342,486.406L 496.83,294.403L 463.098,409.567zM 384.00,1024.00 C 384.00,1077.019 426.981,1120.00 480.00,1120.00 C 533.019,1120.00 576.00,1077.019 576.00,1024.00 C 576.00,970.981 533.019,928.00 480.00,928.00 C 426.981,928.00 384.00,970.981 384.00,1024.00 Z M 960.00,1024.00 C 960.00,1077.019 1002.981,1120.00 1056.00,1120.00 C 1109.019,1120.00 1152.00,1077.019 1152.00,1024.00 C 1152.00,970.981 1109.019,928.00 1056.00,928.00 C 1002.981,928.00 960.00,970.981 960.00,1024.00 Z" data-tags="wondering, emoticon, smiley, face, question" />
<glyph unicode="&#x39;" d="M 768.00-32.00c 424.155,0.00, 768.00,343.845, 768.00,768.00S 1192.155,1504.00, 768.00,1504.00S0.00,1160.155,0.00,736.00S 343.845-32.00, 768.00-32.00z M 768.00,1360.00
		c 344.625,0.00, 624.00-279.375, 624.00-624.00s-279.375-624.00-624.00-624.00S 144.00,391.375, 144.00,736.00S 423.375,1360.00, 768.00,1360.00zM 384.00,1024.00c0.00-53.019, 42.981-96.00, 96.00-96.00s 96.00,42.981, 96.00,96.00s-42.981,96.00-96.00,96.00S 384.00,1077.019, 384.00,1024.00z M 960.00,1024.00
	c0.00-53.019, 42.981-96.00, 96.00-96.00s 96.00,42.981, 96.00,96.00s-42.981,96.00-96.00,96.00S 960.00,1077.019, 960.00,1024.00z M 576.00,448.00l 384.00,0.00 l0.00-96.00 L 576.00,352.00 L 576.00,448.00 z" data-tags="neutral, emoticon, smiley, face" />
<glyph unicode="&#x3a;" d="M 851.484,398.626c-122.916-57.177-237.237-56.574-314.01-51.03c-91.578,6.615-165.237,31.686-197.613,53.598
		c-19.95,13.509-47.076,8.283-60.585-11.673c-13.506-19.953-8.28-47.079, 11.673-60.585c 52.047-35.229, 144.102-61.431, 240.243-68.37
		c 16.299-1.176, 34.197-1.917, 53.469-1.917c 83.673,0.00, 189.939,7.974, 303.63,60.855c 21.846,10.167, 31.317,36.111, 21.156,57.96
		C 899.283,399.313, 873.333,408.772, 851.484,398.626zM 1336.422,463.276c 4.179,379.032, 43.143,1095.309-682.455,1037.418C-62.433,1443.031, 127.521,686.242, 116.844,432.769
		C 107.382,298.69, 62.877,134.797,0.00-32.00l 193.65,0.00 c 19.899,70.683, 34.536,140.58, 40.848,207.225c 11.673-8.142, 24.162-16.011, 37.491-23.55
		c 21.687-12.777, 40.326-29.766, 60.06-47.751c 46.116-42.027, 98.385-89.661, 200.568-95.628c 6.858-0.393, 13.761-0.591, 20.514-0.591
		c 103.344,0.00, 174.021,45.231, 230.817,81.573c 27.21,17.418, 50.727,32.46, 72.846,39.678c 62.865,19.68, 117.798,51.444, 158.856,91.878
		c 6.414,6.312, 12.363,12.807, 17.943,19.422c 22.869-83.817, 54.177-178.137, 88.932-272.256L 1536.00-32.00 
		C 1436.739,121.336, 1334.346,271.561, 1336.422,463.276z M 186.165,669.472c0.00,0.024,0.00,0.045-0.003,0.069
		c-7.119,123.693, 52.065,227.748, 132.189,232.404c 80.118,4.659, 150.84-91.842, 157.956-215.538c0.00-0.021, 0.006-0.045, 0.006-0.066
		c 0.384-6.669, 0.552-13.269, 0.555-19.809c-25.386-6.384-48.288-15.654-68.808-26.445c-0.078,0.918-0.138,1.824-0.228,2.745
		c0.00,0.012,0.00,0.027,0.00,0.039c-6.855,70.215-44.358,123.24-83.778,118.437c-39.42-4.806-65.82-65.625-58.968-135.837
		c0.00-0.015, 0.006-0.027, 0.006-0.039c 2.988-30.612, 11.802-57.954, 24.063-78.666c-3.051-2.406-11.676-8.718-21.609-15.984
		c-7.455-5.451-16.53-12.087-27.471-20.145C 210.252,549.778, 189.816,606.007, 186.165,669.472z M 997.89,363.733
		c-2.85-65.379-88.362-126.888-167.373-151.566l-0.444-0.144c-32.85-10.653-62.142-29.40-93.156-49.245
		c-52.098-33.336-105.969-67.812-183.783-67.812c-5.106,0.00-10.341,0.156-15.489,0.444c-71.274,4.167-104.613,34.548-146.82,73.014
		c-22.263,20.289-45.285,41.271-74.964,58.686l-0.636,0.366c-64.059,36.156-103.818,81.123-106.362,120.291
		c-1.263,19.47, 7.407,36.327, 25.773,50.10c 39.954,29.958, 66.717,49.533, 84.426,62.487c 19.665,14.382, 25.602,18.72, 30.00,22.896
		c 3.144,2.979, 6.546,6.282, 10.206,9.843c 36.669,35.661, 98.04,95.343, 192.225,95.343c 57.606,0.00, 121.347-22.20, 189.255-65.853
		c 31.986-20.817, 59.823-30.429, 95.07-42.60c 24.234-8.367, 51.702-17.853, 88.488-33.606l 0.594-0.246
		C 959.22,432.025, 999.744,406.285, 997.89,363.733z M 978.969,517.291c-6.60,3.321-13.461,6.48-20.616,9.429
		c-33.159,14.184-59.748,23.811-81.801,31.497c 12.174,23.841, 19.74,53.58, 20.436,85.863c0.00,0.015,0.00,0.033,0.00,0.045
		c 1.689,78.561-37.932,142.344-88.494,142.464c-50.565,0.117-92.925-63.471-94.614-142.029c0.00-0.015,0.00-0.027,0.00-0.042
		c-0.057-2.571-0.063-5.124-0.03-7.665c-31.143,14.328-61.77,24.735-91.749,31.14c-0.138,2.952-0.306,5.898-0.366,8.88
		c0.00,0.024,0.00,0.054,0.00,0.075c-2.907,143.118, 84.903,261.585, 196.131,264.603c 111.225,3.021, 203.742-110.55, 206.658-253.665
		c0.00-0.027,0.00-0.057,0.00-0.078C 1025.835,623.089, 1008.534,563.509, 978.969,517.291z" data-tags="tux, linux" />
<glyph unicode="&#x20;" horiz-adv-x="768" />
<glyph class="hidden" unicode="&#xf000;" d="M0,1504L 1536 -32L0 -32 z" horiz-adv-x="0" />
</font>
</defs>
</svg>
